<svg xmlns="http://www.w3.org/2000/svg" viewBox="0 0 48 48"><g><path d="M16.5 17.9c0-7.3 5.6-13.2 7.5-15.2 2 2 7.5 8 7.5 15.2 0 7.3-5.5 13.6-7.5 15.6-2-2-7.5-8.3-7.5-15.6ZM17.7 34C9.5 34 2.6 27.7 2 20h12.6c.7 6.2 4.7 11.4 7 14h-3.9ZM33.4 20c-.7 6.2-4.7 11.4-7 14h3.9c8.2 0 15.2-6.3 15.7-14H33.4ZM12 46.5h2c6.328 0 11.5-5.172 11.5-11.5h-3c0 4.672-3.828 8.5-8.5 8.5h-2v3Z"/></g>
  <style>
    g { fill: #007aff; }
    @media (prefers-color-scheme: dark) {
      g { fill: #007aff; }
    }
  </style>
</svg>
